Coordinates
version=1
nRows=10
nColumns=34
inDegrees=yes

Units are S.I. units (second, meters, Newtons, ...)
If the header above contains a line with 'inDegrees', this indicates whether rotational values are in degrees (yes) or radians (no).

endheader
time	pelvis_tilt	pelvis_list	pelvis_rotation	pelvis_tx	pelvis_ty	pelvis_tz	hip_flexion_r	hip_adduction_r	hip_rotation_r	knee_angle_r	ankle_angle_r	subtalar_angle_r	mtp_angle_r	hip_flexion_l	hip_adduction_l	hip_rotation_l	knee_angle_l	ankle_angle_l	subtalar_angle_l	mtp_angle_l	lumbar_extension	lumbar_bending	lumbar_rotation	arm_flex_r	arm_add_r	arm_rot_r	elbow_flex_r	pro_sup_r	arm_flex_l	arm_add_l	arm_rot_l	elbow_flex_l	pro_sup_l
      0.00000000	     -3.84553206	    -21.38431261	    -52.61399213	      1.72771779	      0.94744129	      3.15654168	     28.00760654	      4.15470185	     -1.06556014	     31.65031910	     -7.18816951	      4.68171430	      0.00000000	     33.19411178	     -7.20931714	      1.26262313	     24.39242466	    -20.54800428	    -23.80723213	      0.00000000	    -24.35703849	     10.42110486	      0.62526623	      7.98929967	     -7.62510507	     -0.99445572	     37.42363711	    119.74812515	     10.43994793	     -7.49928432	     27.22869183	     25.21694382	    100.03210468
      0.01666670	     -3.89524748	    -21.36914049	    -52.56009030	      1.72730719	      0.94710115	      3.15570953	     28.11911499	      4.13022848	     -1.21214554	     31.63225077	     -7.19870921	      4.82732283	      0.00000000	     33.26256520	     -7.22899724	      1.21958873	     24.29062594	    -20.41939426	    -23.81573440	      0.00000000	    -24.43356467	     10.48154301	      0.66253715	      8.19052060	     -7.55581018	     -1.03901298	     37.56302594	    119.73940211	     10.62056048	     -7.57768460	     27.26477619	     25.28946983	    100.08613422
      0.03333330	     -4.38898312	    -21.47392832	    -52.52227747	      1.72721931	      0.94702771	      3.15412619	     28.26651516	      4.16466374	     -2.35735825	     31.40701714	     -6.53192256	      6.39888954	      0.00000000	     33.59880402	     -7.56803843	      1.26277568	     24.20462944	    -19.90478869	    -22.70346420	      0.00000000	    -24.30972447	     11.19328837	      1.02147135	      7.96074359	     -7.89631758	     -1.32135162	     37.69443533	    119.66173440	     10.76720130	     -7.28049046	     27.64985401	     24.97956532	    100.88494281
      0.05000000	     -4.73021912	    -21.27055208	    -53.07213508	      1.72625620	      0.94775756	      3.15322077	     28.37106045	      4.46725870	     -2.11587967	     30.67573863	     -6.77612978	      6.80543462	      0.00000000	     33.59779027	     -7.83763005	      0.91837683	     23.42020253	    -20.84208230	    -22.72222665	      0.00000000	    -24.13770608	     11.24969249	      1.55949213	      7.89228771	     -8.05511936	     -1.03932795	     37.60995237	    119.72695877	     10.53256025	     -7.09654749	     27.82902443	     25.04668544	    101.16942596
      0.06666670	     -5.18982234	    -20.96407947	    -53.04895395	      1.72580271	      0.94777747	      3.15187525	     28.67960733	      4.47047248	     -2.54945176	     30.15368896	     -6.46336474	      7.60858776	      0.00000000	     33.49631471	     -7.72768450	      1.26757421	     21.89833544	    -22.21077169	    -23.66546771	      0.00000000	    -23.82386747	     11.50699222	      1.87313675	      7.83832895	     -8.60668048	      0.20114524	     37.21731254	    119.74817918	     10.46135970	     -6.96156994	     28.30323399	     25.57099035	    102.37307121
      0.08333330	     -5.91008397	    -20.78606800	    -53.55344663	      1.72464802	      0.94789694	      3.15109786	     28.93201678	      4.84118999	     -3.16040105	     29.35050296	     -6.83565030	      8.55883440	      0.00000000	     33.57983961	     -8.26126414	      0.76066952	     20.76935176	    -22.76420326	    -23.65380426	      0.00000000	    -23.72157034	     11.79737336	      2.23092433	      8.25973793	     -8.74462931	      0.17916580	     36.79965564	    119.74817918	     10.23204295	     -6.79153929	     28.41492734	     25.56120706	    102.59398382
      0.10000000	     -6.71484064	    -20.36349924	    -54.33096985	      1.72348086	      0.94764308	      3.15088189	     29.34333858	      5.21926658	     -3.66424949	     28.34214328	     -7.30357521	      9.96595398	      0.00000000	     33.83125366	     -8.82033875	      0.48453900	     19.71812763	    -23.11633040	    -24.09545583	      0.00000000	    -23.40616452	     11.93624838	      2.84076154	      8.61257900	     -8.87128175	      0.46606828	     35.81435625	    119.74817918	     10.22442461	     -6.47913297	     28.58384097	     25.01417769	    102.91663677
      0.11666670	     -7.81830245	    -20.02954355	    -54.93708776	      1.72194323	      0.94720075	      3.15086791	     29.82229415	      5.75238499	     -4.83811774	     27.28194375	     -7.64480038	     11.26322793	      0.00000000	     34.42961007	     -9.50343911	      0.65568119	     18.84437800	    -23.96632279	    -24.96709453	      0.00000000	    -22.96673572	     12.42792340	      3.17737333	      9.18473100	     -8.85046223	      1.12313311	     34.78478192	    119.74817918	     10.15517238	     -6.26532175	     29.00140789	     24.34462228	    103.49778733
      0.13333330	     -8.79148959	    -19.78781191	    -55.04718210	      1.71986275	      0.94716413	      3.15013355	     30.10055968	      6.29970215	     -5.69695214	     26.02370547	     -8.41483243	     11.69502708	      0.00000000	     34.95539911	    -10.04300486	      0.65852879	     17.70708399	    -25.39122883	    -25.19408863	      0.00000000	    -22.67620545	     12.91574413	      3.02808828	      9.99122356	     -8.57793559	      1.70263354	     33.78278780	    119.74817918	     10.29875527	     -6.22594597	     29.20483177	     23.62417301	    103.96059637
      0.15000000	     -9.41898329	    -19.48896180	    -55.11073438	      1.71910583	      0.94751641	      3.14884740	     30.09801523	      6.64811423	     -5.72000380	     24.61371209	     -9.00535344	     11.89419977	      0.00000000	     35.28294835	    -10.26555155	      0.32825900	     16.66385399	    -26.67816309	    -24.98123844	      0.00000000	    -22.43384828	     13.15691204	      2.75612631	     10.70339371	     -8.39364001	      1.83430583	     33.04393901	    119.74817918	     10.23682089	     -6.13971397	     29.37308846	     23.17782204	    104.12269628
